<svg width="37" height="27" viewBox="0 0 37 27" fill="none" xmlns="http://www.w3.org/2000/svg">
<path d="M12.1339 1.76238V20.5085M24.8661 5.54044V24.8345M1 7.21317V21.2439C1 23.9837 3.39726 25.1085 6.30949 23.753L10.4825 21.8207C11.3881 21.4025 12.8975 21.3593 13.8387 21.7486L23.1613 25.5411C24.1025 25.916 25.6119 25.8872 26.5175 25.469L34.2065 21.8928C35.1832 21.4314 36 20.3066 36 19.3837V5.35298C36 2.61316 33.6027 1.4884 30.6905 2.84389L26.5175 4.77618C25.6119 5.19436 24.1025 5.23762 23.1613 4.84828L13.8387 1.07022C12.8975 0.695293 11.3881 0.724134 10.4825 1.14232L2.79351 4.7185C1.79909 5.17994 1 6.30471 1 7.21317V7.21317Z" stroke="#FCDE26" stroke-width="1.5" stroke-linecap="round" stroke-linejoin="round"/>
</svg>
