<svg width="28" height="28" viewBox="0 0 28 28" fill="none" xmlns="http://www.w3.org/2000/svg">
<path d="M26.4625 21.7182C26.4625 22.1682 26.3625 22.6307 26.15 23.0807C25.9375 23.5307 25.6625 23.9557 25.3 24.3557C24.6875 25.0307 24.0125 25.5182 23.25 25.8307C22.5 26.1432 21.6875 26.3057 20.8125 26.3057C19.5375 26.3057 18.175 26.0057 16.7375 25.3932C15.3 24.7807 13.8625 23.9557 12.4375 22.9182C10.9851 21.8558 9.61461 20.6858 8.3375 19.4182C7.07346 18.1457 5.90762 16.7793 4.85 15.3307C3.825 13.9057 3 12.4807 2.4 11.0682C1.8 9.64316 1.5 8.28066 1.5 6.98066C1.5 6.13066 1.65 5.31816 1.95 4.56816C2.25 3.80566 2.725 3.10566 3.3875 2.48066C4.1875 1.69316 5.0625 1.30566 5.9875 1.30566C6.3375 1.30566 6.6875 1.38066 7 1.53066C7.325 1.68066 7.6125 1.90566 7.8375 2.23066L10.7375 6.31816C10.9625 6.63066 11.125 6.91816 11.2375 7.19316C11.35 7.45566 11.4125 7.71816 11.4125 7.95566C11.4125 8.25566 11.325 8.55566 11.15 8.84316C10.9875 9.13066 10.75 9.43066 10.45 9.73066L9.5 10.7182C9.3625 10.8557 9.3 11.0182 9.3 11.2182C9.3 11.3182 9.3125 11.4057 9.3375 11.5057C9.375 11.6057 9.4125 11.6807 9.4375 11.7557C9.6625 12.1682 10.05 12.7057 10.6 13.3557C11.1625 14.0057 11.7625 14.6682 12.4125 15.3307C13.0875 15.9932 13.7375 16.6057 14.4 17.1682C15.05 17.7182 15.5875 18.0932 16.0125 18.3182C16.075 18.3432 16.15 18.3807 16.2375 18.4182C16.3375 18.4557 16.4375 18.4682 16.55 18.4682C16.7625 18.4682 16.925 18.3932 17.0625 18.2557L18.0125 17.3182C18.325 17.0057 18.625 16.7682 18.9125 16.6182C19.2 16.4432 19.4875 16.3557 19.8 16.3557C20.0375 16.3557 20.2875 16.4057 20.5625 16.5182C20.8375 16.6307 21.125 16.7932 21.4375 17.0057L25.575 19.9432C25.9 20.1682 26.125 20.4307 26.2625 20.7432C26.3875 21.0557 26.4625 21.3682 26.4625 21.7182V21.7182Z" stroke="#FCDE26" stroke-width="1.5" stroke-miterlimit="10"/>
</svg>
